HIERARCHY
ROOT ui
{
	 OFFSET 0 0 0
	 CHANNELS 3 XPosition YPosition Z Position
	 EndSite
	 {
	 OFFSET 0 -1 0
	 }
}
ROOT li
{
	 OFFSET 0 0 0
	 CHANNELS 3 XPosition YPosition Z Position
	 EndSite
	 {
	 OFFSET 0 -1 0
	 }
}
ROOT ul
{
	 OFFSET 0 0 0
	 CHANNELS 3 XPosition YPosition Z Position
	 EndSite
	 {
	 OFFSET 0 -1 0
	 }
}
ROOT ll
{
	 OFFSET 0 0 0
	 CHANNELS 3 XPosition YPosition Z Position
	 EndSite
	 {
	 OFFSET 0 -1 0
	 }
}
ROOT tt
{
	 OFFSET 0 0 0
	 CHANNELS 3 XPosition YPosition Z Position
	 EndSite
	 {
	 OFFSET 0 -1 0
	 }
}
ROOT tb
{
	 OFFSET 0 0 0
	 CHANNELS 3 XPosition YPosition Z Position
	 EndSite
	 {
	 OFFSET 0 -1 0
	 }
}
ROOT td
{
	 OFFSET 0 0 0
	 CHANNELS 3 XPosition YPosition Z Position
	 EndSite
	 {
	 OFFSET 0 -1 0
	 }
}
ROOT v
{
	 OFFSET 0 0 0
	 CHANNELS 3 XPosition YPosition Z Position
	 EndSite
	 {
	 OFFSET 0 -1 0
	 }
}
ROOT bn
{
	 OFFSET 0 0 0
	 CHANNELS 3 XPosition YPosition Z Position
	 EndSite
	 {
	 OFFSET 0 -1 0
	 }
}
MOTION
Frames: 10
Frame Time: 0.002
0.0038736519813537596	3.2256200909614564E-4	0		0.36887548828125	-2.358850830078125	0		-0.9903741455078126	-0.011179042816162109	0		-0.7955099487304688	-2.232029541015625	0		1.5437386474609376	-0.5356344604492187	0		3.293781982421875	-0.32337619018554686	0		4.55435546875	-0.14270907592773438	0		5.5205107421875	0.08342777252197266	0		-0.12818447875976563	5.9626650390625	0		
-0.07478300476074219	0.00243265700340271	0		0.34138751220703123	-2.358400146484375	0		-0.9931043090820313	-0.015173106193542481	0		-0.724138427734375	-2.242006591796875	0		1.5451036376953124	-0.535482177734375	0		3.27914501953125	-0.32186944580078125	0		4.5436787109375	-0.1421841278076172	0		5.512056640625	0.10102840423583985	0		-0.010169278144836426	5.9741044921875	0		
0.006522336959838867	3.8360199332237245E-4	0		0.3609801025390625	-2.352584716796875	0		-0.9917769775390625	-0.015221762657165527	0		-0.7965736694335938	-2.237041259765625	0		1.5464722900390624	-0.5353289794921875	0		3.30056201171875	-0.31684722900390627	0		4.55209716796875	-0.1349149169921875	0		5.52314599609375	0.08436434936523438	0		-0.1766922607421875	5.94737744140625	0		
-0.0832943572998047	-0.007371352195739746	0		0.3532744140625	-2.3664052734375	0		-0.99048046875	-0.015269978523254395	0		-0.7132965087890625	-2.252166748046875	0		1.544756591796875	-0.5391372680664063	0		3.26481884765625	-0.3210638732910156	0		4.546298828125	-0.14146070861816407	0		5.515435546875	0.08494849395751954	0		-0.17586463928222656	5.9473935546875	0		
0.009056668281555175	4.4313299655914304E-4	0		0.3567342224121094	-2.363376220703125	0		-1.055234375	-0.014441727638244629	0		-0.779733154296875	-2.240291748046875	0		1.56010205078125	-0.534176513671875	0		3.29906640625	-0.32222299194335935	0		4.547537109375	-0.1411109161376953	0		5.51666796875	0.08539923858642579	0		-0.17409405517578125	5.9463955078125	0		
-0.06570419311523437	0.006473255157470703	0		0.38020458984375	-2.35361376953125	0		-0.9740341186523438	-0.012547345161437988	0		-0.7113417358398437	-2.236205810546875	0		1.5613079833984376	-0.5340343627929688	0		3.2983095703125	-0.3179269714355469	0		4.5367041015625	-0.14061660766601564	0		5.53090625	0.09166024780273438	0		-0.15624736022949218	5.95518505859375	0		
0.011309249877929688	4.980849921703338E-4	0		0.36646963500976565	-2.3523642578125	0		-0.9829332275390625	-0.011458221435546876	0		-0.7911185913085937	-2.23716650390625	0		1.551419189453125	-0.534754638671875	0		3.301365234375	-0.321696044921875	0		4.56178759765625	-0.14061253356933595	0		5.52301318359375	0.09419114685058594	0		-0.1386186828613281	5.9519775390625	0		
-0.040668979644775394	0.002214776039123535	0		0.3765240173339844	-2.3604326171875	0		-0.9859801025390625	-0.01544642162322998	0		-0.7160250854492187	-2.24216015625	0		1.54940673828125	-0.5385885009765625	0		3.269406494140625	-0.3200231628417969	0		4.54589697265625	-0.1320889892578125	0		5.52402392578125	0.0955799560546875	0		-0.15413668823242188	5.9422021484375	0		
0.00614962100982666	-0.006363709926605224	0		0.33970391845703124	-2.351895263671875	0		-1.061033203125	-0.013499152183532715	0		-0.7519306030273437	-2.239703125	0		1.5534183349609374	-0.5345108642578125	0		3.303337158203125	-0.32122833251953126	0		4.563716796875	-0.14002830505371094	0		5.520828125	0.08699581146240234	0		-0.15259123229980467	5.94120068359375	0		
0.014096490859985352	5.622460246086121E-4	0		0.36255218505859377	-2.363142578125	0		-1.0561243896484376	-0.009595782279968261	0		-0.778007080078125	-2.244380126953125	0		1.559227783203125	-0.5404685668945313	0		3.278253173828125	-0.31768475341796876	0		4.55257373046875	-0.1396129913330078	0		5.5216796875	0.0873314208984375	0		-0.18994532775878906	5.95169921875	0		
